# xmcd CD database file
#
# Track frame offsets:
#	150
#	16843
#	33025
#	52451
#	69263
#	84651
#	103111
#	119997
#	138355
#	157427
#	175188
#	195406
#
# Disc length: 2863 seconds
#
# Revision: 0
# Processed by: cddbd v1.5.2PL0 Copyright (c) Steve Scherf et al.
# Submitted via: CDex 1.51
#
DISCID=aa0b2d0c
DTITLE=ANITA MEYER - COLLECTIONS - ANITA MEYER
DYEAR=2006
DGENRE=ALBUM
TTITLE0=THEY DON'T PLAY THAT LOVE SONG
TTITLE1=WHY TELL ME WHY
TTITLE2=LOVE ON THE LINE
TTITLE3=NOW WE'RE STARTING OVER AGAIN
TTITLE4=TOO YOUNG TO KNOW
TTITLE5=IF I HAD ONLY KNOWN
TTITLE6=JACKSONVILLE
TTITLE7=LOVE GHOST
TTITLE8=BACK IN YOUR ARMS
TTITLE9=ONE MORE TIME
TTITLE10=ALL OVER THE WORLD
TTITLE11=YOU'VE GOT SOMEONE TO CARE FOR
EXTD=YEAR: 2006
EXTT0=
EXTT1=
EXTT2=
EXTT3=
EXTT4=
EXTT5=
EXTT6=
EXTT7=
EXTT8=
EXTT9=
EXTT10=
EXTT11=
PLAYORDER=
